<?xml version="1.0" encoding="utf-8"?>
<!-- Generator: Adobe Illustrator 25.4.1, SVG Export Plug-In . SVG Version: 6.00 Build 0)  -->
<svg version="1.1" id="Layer_1" xmlns="http://www.w3.org/2000/svg" xmlns:xlink="http://www.w3.org/1999/xlink" x="0px" y="0px"
	 viewBox="0 0 450 155.1" style="enable-background:new 0 0 450 155.1;" xml:space="preserve">
<style type="text/css">
	.st0{fill:none;stroke:#000000;stroke-width:0.8;stroke-linecap:round;stroke-linejoin:round;}
	.st1{fill:none;stroke:#999999;stroke-width:0.8;stroke-linecap:round;stroke-linejoin:round;}
	.st2{font-family:'ArialMT';}
	.st3{font-size:16.5963px;}
</style>
<g>
	<g>
		<path class="st0" d="M351.3,121h56.3V69.8"/>
		<path class="st0" d="M351.3,108.5h12V69.8"/>
		<path class="st0" d="M318.3,101.6h22.9V69.8"/>
		<path class="st0" d="M330,114.1h-11.7"/>
		<path class="st0" d="M296.8,107.1h-18.1"/>
		<path class="st0" d="M278.7,94.7h18.1V69.8"/>
		<rect x="64.6" y="47.7" class="st0" width="354.1" height="22.1"/>
		<path class="st0" d="M197.3,47.7v22.1"/>
		<path class="st0" d="M86.7,47.7v22.1"/>
		<path class="st0" d="M219.5,47.7v22.1"/>
		<path class="st0" d="M108.8,47.7v22.1"/>
		<path class="st0" d="M241.6,47.7v22.1"/>
		<path class="st0" d="M131,47.7v22.1"/>
		<path class="st0" d="M263.7,47.7v22.1"/>
		<path class="st0" d="M153.1,47.7v22.1"/>
		<path class="st0" d="M285.9,47.7v22.1"/>
		<path class="st0" d="M175.2,47.7v22.1"/>
		<path class="st0" d="M308,47.7v22.1"/>
		<path class="st0" d="M330.1,47.7v22.1"/>
		<path class="st0" d="M352.2,47.7v22.1"/>
		<path class="st0" d="M374.4,47.7v22.1"/>
		<path class="st0" d="M396.5,47.7v22.1"/>
		<path class="st0" d="M276.8,112.7c-8.5,0-16-4.8-20.2-12c4.2-7.1,11.5-11.8,19.9-12c-2.3,3.4-3.6,7.4-3.6,11.7
			C273,105,274.4,109.2,276.8,112.7z"/>
		<path class="st0" d="M280.8,112.7c-2.5-3.5-3.9-7.7-3.9-12.2c0-4.3,1.3-8.3,3.6-11.7"/>
		<path class="st0" d="M316.9,119.6c-8.5,0-16-4.8-20.2-12c4.2-7.1,11.5-11.8,19.9-12c-2.3,3.4-3.6,7.4-3.6,11.7
			C313.1,111.9,314.5,116.1,316.9,119.6z"/>
		<path class="st0" d="M320.9,119.6c-2.5-3.5-3.9-7.7-3.9-12.2c0-4.3,1.3-8.3,3.6-11.7"/>
		<path class="st0" d="M350.1,126.5c-8.5,0-16-4.8-20.2-12c4.2-7.1,11.5-11.8,19.9-12c-2.3,3.4-3.6,7.4-3.6,11.7
			C346.3,118.8,347.7,123,350.1,126.5z"/>
		<path class="st0" d="M354.1,126.5c-2.5-3.5-3.9-7.7-3.9-12.2c0-4.3,1.3-8.3,3.6-11.7"/>
		<path class="st0" d="M64.6,60.1H50.7v40.1h205.4"/>
	</g>
	<g>
		<circle class="st1" cx="230.5" cy="58.7" r="5.5"/>
		<circle class="st1" cx="319" cy="58.7" r="5.5"/>
		<circle class="st1" cx="363.3" cy="58.7" r="5.5"/>
		<circle class="st1" cx="208.4" cy="58.7" r="5.5"/>
		<circle class="st1" cx="142" cy="58.7" r="5.5"/>
		<circle class="st1" cx="36.9" cy="85.2" r="5.5"/>
		<circle class="st1" cx="97.8" cy="58.7" r="5.5"/>
		<circle class="st1" cx="341.2" cy="58.7" r="5.5"/>
		<circle class="st1" cx="385.4" cy="58.7" r="5.5"/>
		<path class="st1" d="M186.3,53.2v11.1"/>
		<path class="st1" d="M119.9,53.2v11.1"/>
		<path class="st1" d="M75.6,53.2v11.1"/>
		<path class="st1" d="M274.8,53.2v11.1"/>
		<path class="st1" d="M164.1,53.2v11.1"/>
		<path class="st1" d="M252.7,53.2v11.1"/>
		<path class="st1" d="M296.9,53.2v11.1"/>
		<path class="st1" d="M407.6,53.2v11.1"/>
	</g>
	<g>
		<text transform="matrix(1 0 0 1 71.0181 42.8705)" class="st2 st3">0</text>
		<text transform="matrix(1 0 0 1 287.543 42.8705)" class="st2 st3">10</text>
		<text transform="matrix(1 0 0 1 331.9434 42.8705)" class="st2 st3">12</text>
		<text transform="matrix(1 0 0 1 354.0723 42.8705)" class="st2 st3">13</text>
		<text transform="matrix(1 0 0 1 398.3281 42.8705)" class="st2 st3">15</text>
	</g>
</g>
</svg>
